<?xml version="1.0" encoding="UTF-8" standalone="no"?>
<svg
   xmlns:dc="http://purl.org/dc/elements/1.1/"
   xmlns:cc="http://creativecommons.org/ns#"
   xmlns:rdf="http://www.w3.org/1999/02/22-rdf-syntax-ns#"
   xmlns:svg="http://www.w3.org/2000/svg"
   xmlns="http://www.w3.org/2000/svg"
   xmlns:sodipodi="http://sodipodi.sourceforge.net/DTD/sodipodi-0.dtd"
   xmlns:inkscape="http://www.inkscape.org/namespaces/inkscape"
   inkscape:version="1.0 (4035a4fb49, 2020-05-01)"
   sodipodi:docname="favicon.svg"
   id="svg842"
   version="1.1"
   viewBox="0 0 64 64"
   height="64mm"
   width="64mm">
  <defs
     id="defs836" />
  <sodipodi:namedview
     inkscape:window-maximized="1"
     inkscape:window-y="-8"
     inkscape:window-x="-8"
     inkscape:window-height="1017"
     inkscape:window-width="1920"
     inkscape:snap-bbox-midpoints="true"
     inkscape:snap-bbox-edge-midpoints="true"
     inkscape:bbox-nodes="true"
     inkscape:bbox-paths="true"
     inkscape:snap-bbox="true"
     showgrid="false"
     inkscape:document-rotation="0"
     inkscape:current-layer="layer1"
     inkscape:document-units="mm"
     inkscape:cy="178.82157"
     inkscape:cx="-41.510296"
     inkscape:zoom="1.4"
     inkscape:pageshadow="2"
     inkscape:pageopacity="0.0"
     borderopacity="1.0"
     bordercolor="#666666"
     pagecolor="#ffffff"
     id="base" />
  <metadata
     id="metadata839">
    <rdf:RDF>
      <cc:Work
         rdf:about="">
        <dc:format>image/svg+xml</dc:format>
        <dc:type
           rdf:resource="http://purl.org/dc/dcmitype/StillImage" />
        <dc:title></dc:title>
      </cc:Work>
    </rdf:RDF>
  </metadata>
  <g
     id="layer1"
     inkscape:groupmode="layer"
     inkscape:label="Warstwa 1">
    <g
       inkscape:export-ydpi="500"
       inkscape:export-xdpi="500"
       inkscape:export-filename="C:\Github\MeetMate\meetmate\static\resources\favicon.png"
       id="g1506">
      <path
         id="path1407"
         style="fill:#77dd76;fill-opacity:1;stroke-width:1.29709"
         d="M 120.54492 0 A 120.94488 120.94488 0 0 0 0 120.94531 A 120.94488 120.94488 0 0 0 120.94531 241.89062 A 120.94488 120.94488 0 0 0 241.89062 120.94531 A 120.94488 120.94488 0 0 0 120.94531 0 A 120.94488 120.94488 0 0 0 120.54492 0 z M 120.79883 22.677734 A 98.267717 98.267717 0 0 1 120.94531 22.677734 A 98.267717 98.267717 0 0 1 219.21289 120.94531 A 98.267717 98.267717 0 0 1 120.94531 219.21289 A 98.267717 98.267717 0 0 1 22.677734 120.94531 A 98.267717 98.267717 0 0 1 120.79883 22.677734 z "
         transform="scale(0.26458333)" />
      <path
         id="path1409-9"
         style="fill:#77dd76;fill-opacity:1;stroke-width:2.49862"
         d="M 120.94531 45.353516 A 75.590551 75.590551 0 0 0 45.353516 120.94531 A 75.590551 75.590551 0 0 0 120.94531 196.53516 A 75.590551 75.590551 0 0 0 196.53516 120.94531 A 75.590551 75.590551 0 0 0 120.94531 45.353516 z M 120.94531 68.03125 A 52.913386 52.913386 0 0 1 173.85742 120.94531 A 52.913386 52.913386 0 0 1 120.94531 173.85742 A 52.913386 52.913386 0 0 1 68.03125 120.94531 A 52.913386 52.913386 0 0 1 120.94531 68.03125 z "
         transform="scale(0.26458333)" />
      <circle
         cy="32"
         cx="32"
         id="path1409-9-5-1"
         style="fill:#77dd76;fill-opacity:1;stroke-width:0.264437"
         r="8" />
    </g>
  </g>
</svg>
