<?xml version="1.0" encoding="UTF-8" standalone="no"?>
<svg
   xmlns:dc="http://purl.org/dc/elements/1.1/"
   xmlns:cc="http://creativecommons.org/ns#"
   xmlns:rdf="http://www.w3.org/1999/02/22-rdf-syntax-ns#"
   xmlns:svg="http://www.w3.org/2000/svg"
   xmlns="http://www.w3.org/2000/svg"
   xmlns:sodipodi="http://sodipodi.sourceforge.net/DTD/sodipodi-0.dtd"
   xmlns:inkscape="http://www.inkscape.org/namespaces/inkscape"
   inkscape:version="1.0 (4035a4fb49, 2020-05-01)"
   sodipodi:docname="meeting.svg"
   xml:space="preserve"
   style="enable-background:new 0 0 512 512;"
   viewBox="0 0 512 512"
   y="0px"
   x="0px"
   id="Capa_1"
   version="1.1"><metadata
   id="metadata43"><rdf:RDF><cc:Work
       rdf:about=""><dc:format>image/svg+xml</dc:format><dc:type
         rdf:resource="http://purl.org/dc/dcmitype/StillImage" /></cc:Work></rdf:RDF></metadata><defs
   id="defs41" /><sodipodi:namedview
   inkscape:current-layer="g6"
   inkscape:window-maximized="1"
   inkscape:window-y="-8"
   inkscape:window-x="-8"
   inkscape:cy="318.81646"
   inkscape:cx="294.4336"
   inkscape:zoom="0.58695387"
   showgrid="false"
   id="namedview39"
   inkscape:window-height="1017"
   inkscape:window-width="1920"
   inkscape:pageshadow="2"
   inkscape:pageopacity="0"
   guidetolerance="10"
   gridtolerance="10"
   objecttolerance="10"
   borderopacity="1"
   bordercolor="#666666"
   pagecolor="#ffffff" />
<g
   id="g6">
	<g
   style="fill:#77dd76;fill-opacity:1;opacity:0.999"
   id="g4">
		<path
   style="fill:#77dd76;fill-opacity:1"
   id="path2"
   d="M511.388,368.602c-0.013-0.077-0.026-0.153-0.04-0.228L489.455,248.48c-3.682-21.724-22.321-37.48-44.368-37.48h-84.186    v-16c0-41.928-24.606-78.189-60.222-95.006c9.519-10.623,15.322-24.642,15.322-39.994c0-33.084-26.916-60-60-60    c-33.084,0-60,26.916-60,60c0,15.353,5.803,29.372,15.322,39.994c-35.616,16.817-60.322,53.078-60.322,95.006v16H66.915    c-22.045,0-40.683,15.753-44.366,37.476L0.652,368.373c-0.014,0.076-0.027,0.152-0.04,0.229    c-4.284,25.701,14.98,49.635,40.915,52.168c-6.739,13.979-10.525,29.666-10.525,46.23v30c0,8.284,6.716,15,15,15h180    c8.284,0,14.9-6.716,14.9-15v-30c0-16.473-3.642-32.179-10.312-46.1h50.824c-6.67,13.921-10.412,29.627-10.412,46.1v30    c0,8.284,6.716,15,15,15h180c8.284,0,14.9-6.716,14.9-15v-30c0-16.564-3.686-32.251-10.426-46.23    C496.409,418.236,515.671,394.3,511.388,368.602z M256.001,30c16.542,0,30,13.458,30,30s-13.458,30-30,30s-30-13.458-30-30    S239.46,30,256.001,30z M180.902,195c0-41.355,33.745-75,75.1-75c41.355,0,75,33.645,75,75v16h-150.1V195z M211.001,482h-150.1    v-15c0-41.907,33.745-76,75.1-76c41.355,0,75,34.093,75,76V482z M106.001,331c0-16.542,13.458-30,30-30c16.542,0,30,13.458,30,30    s-13.458,30-30,30S106.001,347.542,106.001,331z M451.001,482h-150.1v-15c0-41.907,33.745-76,75.1-76c41.355,0,75,34.093,75,76    V482z M346.001,331c0-16.542,13.458-30,30-30s30,13.458,30,30s-13.458,30-30,30S346.001,347.542,346.001,331z M466,391h-16.885    c-8.296-8.136-17.914-14.903-28.495-19.938C430.175,360.431,436,346.385,436,331c0-33.084-26.916-60-60-60s-60,26.916-60,60    c0,15.385,5.826,29.431,15.38,40.062c-10.581,5.035-20.199,11.802-28.495,19.938h-93.772    c-8.296-8.136-17.914-14.903-28.495-19.938c9.555-10.631,15.38-24.677,15.38-40.062c0-33.084-26.916-60-60-60    c-33.084,0-60,26.916-60,60c0,15.385,5.826,29.431,15.38,40.062C80.801,376.097,71.183,382.864,62.887,391H46    c-9.42,0-17.238-8.437-15.812-17.37l21.891-119.867c0.014-0.076,0.027-0.152,0.04-0.229C53.33,246.271,59.552,241,66.915,241    c15.164,0,370.427,0,378.172,0c7.363,0,13.586,5.271,14.796,12.534c0.013,0.076,0.026,0.152,0.04,0.228l21.887,119.864    C483.239,382.554,475.427,391,466,391z" />
	</g>
</g>
<g
   id="g8">
</g>
<g
   id="g10">
</g>
<g
   id="g12">
</g>
<g
   id="g14">
</g>
<g
   id="g16">
</g>
<g
   id="g18">
</g>
<g
   id="g20">
</g>
<g
   id="g22">
</g>
<g
   id="g24">
</g>
<g
   id="g26">
</g>
<g
   id="g28">
</g>
<g
   id="g30">
</g>
<g
   id="g32">
</g>
<g
   id="g34">
</g>
<g
   id="g36">
</g>
</svg>
