<?xml version="1.0" encoding="UTF-8" standalone="no"?>
<svg
   xmlns:dc="http://purl.org/dc/elements/1.1/"
   xmlns:cc="http://creativecommons.org/ns#"
   xmlns:rdf="http://www.w3.org/1999/02/22-rdf-syntax-ns#"
   xmlns:svg="http://www.w3.org/2000/svg"
   xmlns="http://www.w3.org/2000/svg"
   xmlns:sodipodi="http://sodipodi.sourceforge.net/DTD/sodipodi-0.dtd"
   xmlns:inkscape="http://www.inkscape.org/namespaces/inkscape"
   inkscape:version="1.0 (4035a4fb49, 2020-05-01)"
   sodipodi:docname="meeting_history.svg"
   xml:space="preserve"
   style="enable-background:new 0 0 503.379 503.379;"
   viewBox="0 0 503.379 503.379"
   height="503.379px"
   width="503.379px"
   y="0px"
   x="0px"
   id="Capa_1"
   version="1.1"><metadata
   id="metadata41"><rdf:RDF><cc:Work
       rdf:about=""><dc:format>image/svg+xml</dc:format><dc:type
         rdf:resource="http://purl.org/dc/dcmitype/StillImage" /></cc:Work></rdf:RDF></metadata><defs
   id="defs39" /><sodipodi:namedview
   inkscape:snap-midpoints="true"
   inkscape:snap-smooth-nodes="true"
   inkscape:snap-intersection-paths="true"
   inkscape:object-paths="true"
   inkscape:snap-bbox-midpoints="true"
   inkscape:snap-bbox-edge-midpoints="true"
   inkscape:bbox-nodes="true"
   inkscape:bbox-paths="true"
   inkscape:snap-bbox="true"
   inkscape:guide-bbox="true"
   showguides="true"
   inkscape:current-layer="Capa_1"
   inkscape:window-maximized="1"
   inkscape:window-y="-8"
   inkscape:window-x="-8"
   inkscape:cy="162.89857"
   inkscape:cx="364.89617"
   inkscape:zoom="0.84429426"
   showgrid="false"
   id="namedview37"
   inkscape:window-height="1017"
   inkscape:window-width="1920"
   inkscape:pageshadow="2"
   inkscape:pageopacity="0"
   guidetolerance="10"
   gridtolerance="10"
   objecttolerance="10"
   borderopacity="1"
   bordercolor="#666666"
   pagecolor="#ffffff" />
<g
   transform="translate(-26.646022,0.30972141)"
   id="g4">
	<path
   style="opacity:1;fill:#77dd76;fill-opacity:1"
   id="path2"
   d="m 458.091,128.116 v 326.842 c 0,26.698 -21.723,48.421 -48.422,48.421 h -220.92 c -26.699,0 -48.421,-21.723 -48.421,-48.421 V 242.439 c 6.907,1.149 13.953,1.894 21.184,1.894 5.128,0 10.161,-0.381 15.132,-0.969 v 211.594 c 0,6.673 5.429,12.104 12.105,12.104 h 220.92 c 6.674,0 12.105,-5.432 12.105,-12.104 V 128.116 c 0,-6.676 -5.432,-12.105 -12.105,-12.105 H 289.835 c 0,-12.625 -1.897,-24.793 -5.297,-36.315 h 125.131 c 26.699,-0.001 48.422,21.721 48.422,48.42 z M 159.49,228.401 C 96.517,228.401 45.288,177.172 45.288,114.202 45.289,51.229 96.517,0 159.49,0 c 62.971,0 114.202,51.229 114.202,114.202 0,62.97 -51.231,114.199 -114.202,114.199 z m 0,-24.211 c 49.618,0 89.989,-40.364 89.989,-89.988 0,-49.627 -40.365,-89.991 -89.989,-89.991 -49.626,0 -89.991,40.364 -89.991,89.991 0,49.624 40.371,89.988 89.991,89.988 z m 68.491,-77.882 c 6.682,0 12.105,-5.423 12.105,-12.105 0,-6.682 -5.423,-12.105 -12.105,-12.105 h -56.386 v -47.52 c 0,-6.682 -5.423,-12.105 -12.105,-12.105 -6.682,0 -12.105,5.423 -12.105,12.105 v 59.625 c 0,6.682 5.423,12.105 12.105,12.105 z m 139.716,98.148 h -131.14 c -6.682,0 -12.105,5.423 -12.105,12.105 0,6.683 5.423,12.105 12.105,12.105 h 131.14 c 6.685,0 12.105,-5.423 12.105,-12.105 10e-4,-6.682 -5.42,-12.105 -12.105,-12.105 z m 0.213,73.429 H 236.77 c -6.682,0 -12.105,5.42 -12.105,12.105 0,6.685 5.423,12.105 12.105,12.105 h 131.14 c 6.685,0 12.104,-5.42 12.104,-12.105 0,-6.685 -5.413,-12.105 -12.104,-12.105 z m 0,76.468 H 236.77 c -6.682,0 -12.105,5.426 -12.105,12.105 0,6.685 5.423,12.104 12.105,12.104 h 131.14 c 6.685,0 12.104,-5.42 12.104,-12.104 10e-4,-6.68 -5.413,-12.105 -12.104,-12.105 z" />
</g>
<g
   id="g6">
</g>
<g
   id="g8">
</g>
<g
   id="g10">
</g>
<g
   id="g12">
</g>
<g
   id="g14">
</g>
<g
   id="g16">
</g>
<g
   id="g18">
</g>
<g
   id="g20">
</g>
<g
   id="g22">
</g>
<g
   id="g24">
</g>
<g
   id="g26">
</g>
<g
   id="g28">
</g>
<g
   id="g30">
</g>
<g
   id="g32">
</g>
<g
   id="g34">
</g>
<rect
   y="-23.378702"
   x="-259.90585"
   height="554.61157"
   width="771.34082"
   id="rect907"
   style="opacity:1;fill:#d35f8d;fill-opacity:0;stroke-width:0.729449" /></svg>
