<?xml version="1.0" encoding="UTF-8" standalone="no"?>
<svg
   xmlns:dc="http://purl.org/dc/elements/1.1/"
   xmlns:cc="http://creativecommons.org/ns#"
   xmlns:rdf="http://www.w3.org/1999/02/22-rdf-syntax-ns#"
   xmlns:svg="http://www.w3.org/2000/svg"
   xmlns="http://www.w3.org/2000/svg"
   xmlns:sodipodi="http://sodipodi.sourceforge.net/DTD/sodipodi-0.dtd"
   xmlns:inkscape="http://www.inkscape.org/namespaces/inkscape"
   inkscape:version="1.0 (4035a4fb49, 2020-05-01)"
   sodipodi:docname="qrcode.svg"
   xml:space="preserve"
   style="enable-background:new 0 0 371.643 371.643;"
   viewBox="0 0 371.643 371.643"
   y="0px"
   x="0px"
   id="Capa_1"
   version="1.1"><metadata
   id="metadata55"><rdf:RDF><cc:Work
       rdf:about=""><dc:format>image/svg+xml</dc:format><dc:type
         rdf:resource="http://purl.org/dc/dcmitype/StillImage" /></cc:Work></rdf:RDF></metadata><defs
   id="defs53" /><sodipodi:namedview
   inkscape:current-layer="Capa_1"
   inkscape:window-maximized="1"
   inkscape:window-y="-8"
   inkscape:window-x="-8"
   inkscape:cy="133.65614"
   inkscape:cx="346.83486"
   inkscape:zoom="1.1435706"
   showgrid="false"
   id="namedview51"
   inkscape:window-height="1017"
   inkscape:window-width="1920"
   inkscape:pageshadow="2"
   inkscape:pageopacity="0"
   guidetolerance="10"
   gridtolerance="10"
   objecttolerance="10"
   borderopacity="1"
   bordercolor="#666666"
   pagecolor="#ffffff" />

<g
   id="g20">
</g>
<g
   id="g22">
</g>
<g
   id="g24">
</g>
<g
   id="g26">
</g>
<g
   id="g28">
</g>
<g
   id="g30">
</g>
<g
   id="g32">
</g>
<g
   id="g34">
</g>
<g
   id="g36">
</g>
<g
   id="g38">
</g>
<g
   id="g40">
</g>
<g
   id="g42">
</g>
<g
   id="g44">
</g>
<g
   id="g46">
</g>
<g
   id="g48">
</g>
<g
   transform="translate(1.0766141,-2.0493499)"
   id="g18"><g
     id="g4"><rect
       x="105.084"
       y="38.271"
       width="163.76801"
       height="20"
       id="rect2"
       style="fill:#77dd76;fill-opacity:1" /></g><g
     id="g16"><path
       d="m 311.596,190.189 c -7.441,-9.347 -18.403,-16.206 -32.743,-20.522 V 30 c 0,-16.542 -13.458,-30 -30,-30 H 125.084 c -16.542,0 -30,13.458 -30,30 v 120.143 h -8.296 c -16.542,0 -30,13.458 -30,30 v 1.333 c 0,5.854 1.691,11.317 4.603,15.939 -7.34,5.474 -12.103,14.221 -12.103,24.061 v 1.333 c 0,9.84 4.763,18.587 12.103,24.062 -2.911,4.621 -4.603,10.085 -4.603,15.938 v 1.333 c 0,16.542 13.458,30 30,30 h 8.324 c 0.427,11.631 7.503,21.587 17.534,26.177 0.931,10.503 4.084,30.187 14.768,45.537 1.943,2.792 5.054,4.288 8.216,4.288 1.972,0 3.963,-0.582 5.704,-1.793 4.533,-3.155 5.65,-9.388 2.495,-13.921 -6.798,-9.767 -9.602,-22.608 -10.76,-31.4 h 82.685 c 0.272,0.414 0.545,0.818 0.815,1.21 3.142,4.541 9.372,5.679 13.913,2.534 4.542,-3.142 5.677,-9.371 2.535,-13.913 -11.919,-17.229 -8.787,-35.884 9.581,-57.012 3.067,-2.652 12.307,-11.732 11.217,-24.033 -0.828,-9.343 -7.109,-17.194 -18.669,-23.337 -0.344,-0.183 -0.698,-0.345 -1.061,-0.486 -0.466,-0.182 -11.403,-4.579 -9.741,-15.706 1.007,-6.737 14.768,-8.273 23.766,-7.666 23.156,1.569 39.698,7.803 47.836,18.026 5.752,7.225 7.607,16.623 5.673,28.733 -0.413,2.585 -0.824,5.241 -1.245,7.959 -5.756,37.194 -12.919,83.483 -49.87,114.661 -4.221,3.561 -4.756,9.87 -1.194,14.092 1.979,2.344 4.803,3.551 7.648,3.551 2.277,0 4.567,-0.773 6.444,-2.358 42.672,-36.005 50.802,-88.533 56.737,-126.888 0.415,-2.684 0.821,-5.309 1.229,-7.863 2.834,-17.721 -0.455,-32.641 -9.772,-44.345 z m -232.308,42.62 c -5.514,0 -10,-4.486 -10,-10 v -1.333 c 0,-5.514 4.486,-10 10,-10 h 7.5 7.5 v 21.333 h -7.5 z m -2.5,-52.666 c 0,-5.514 4.486,-10 10,-10 h 7.5 v 21.333 h -7.5 c -5.514,0 -10,-4.486 -10,-10 z m 17.5,93.999 h -7.5 c -5.514,0 -10,-4.486 -10,-10 v -1.333 c 0,-5.514 4.486,-10 10,-10 h 7.5 z m 30.796,28.887 c -5.514,0 -10,-4.486 -10,-10 v -8.271 h 91.457 c -0.851,6.668 -0.437,12.787 0.731,18.271 z m 79.482,-113.698 c -3.124,20.906 12.427,33.184 21.625,37.04 5.441,2.968 7.551,5.647 7.701,7.188 0.21,2.15 -2.553,5.684 -4.477,7.251 -0.482,0.378 -0.929,0.8 -1.335,1.261 -6.987,7.936 -11.982,15.52 -15.432,22.688 H 115.084 V 30 c 0,-5.514 4.486,-10 10,-10 h 123.769 c 5.514,0 10,4.486 10,10 v 135.579 c -3.032,-0.381 -6.15,-0.694 -9.389,-0.914 -25.159,-1.694 -42.37,7.748 -44.898,24.666 z"
       id="path6"
       style="fill:#77dd76;fill-opacity:1" /><path
       d="m 179.129,83.167 h -24.06 c -2.761,0 -5,2.238 -5,5 v 24.061 c 0,2.762 2.239,5 5,5 h 24.06 c 2.761,0 5,-2.238 5,-5 V 88.167 c 0,-2.762 -2.239,-5 -5,-5 z"
       id="path8"
       style="fill:#77dd76;fill-opacity:1" /><path
       d="m 172.629,142.86 h -12.56 V 130.8 c 0,-2.762 -2.239,-5 -5,-5 -2.761,0 -5,2.238 -5,5 v 17.061 c 0,2.762 2.239,5 5,5 h 17.56 c 2.761,0 5,-2.238 5,-5 0,-2.762 -2.239,-5.001 -5,-5.001 z"
       id="path10"
       style="fill:#77dd76;fill-opacity:1" /><path
       d="m 216.568,83.167 h -24.06 c -2.761,0 -5,2.238 -5,5 v 24.061 c 0,2.762 2.239,5 5,5 h 24.06 c 2.761,0 5,-2.238 5,-5 V 88.167 c 0,-2.762 -2.238,-5 -5,-5 z m -5,24.061 h -14.06 V 93.167 h 14.06 z"
       id="path12"
       style="fill:#77dd76;fill-opacity:1" /><path
       d="M 211.669,125.936 H 197.41 c -2.761,0 -5,2.238 -5,5 v 14.257 c 0,2.762 2.239,5 5,5 h 14.259 c 2.761,0 5,-2.238 5,-5 v -14.257 c 0,-2.762 -2.239,-5 -5,-5 z"
       id="path14"
       style="fill:#77dd76;fill-opacity:1" /></g></g></svg>
